{
    "asset" : {
        "generator" : "Khronos glTF Blender I/O v1.4.40",
        "version" : "2.0"
    },
    "scene" : 0,
    "scenes" : [
        {
            "name" : "Scene",
            "nodes" : [
                0
            ]
        }
    ],
    "nodes" : [
        {
            "mesh" : 0,
            "name" : "Cube"
        }
    ],
    "meshes" : [
        {
            "name" : "Cube.001",
            "primitives" : [
                {
                    "attributes" : {
                        "POSITION" : 0,
                        "NORMAL" : 1,
                        "TEXCOORD_0" : 2
                    },
                    "indices" : 3
                }
            ]
        }
    ],
    "accessors" : [
        {
            "bufferView" : 0,
            "componentType" : 5126,
            "count" : 1376,
            "max" : [
                0.5,
                1.2898612022399902,
                0.0625
            ],
            "min" : [
                -0.5023416876792908,
                -0.5,
                -0.0625
            ],
            "type" : "VEC3"
        },
        {
            "bufferView" : 1,
            "componentType" : 5126,
            "count" : 1376,
            "type" : "VEC3"
        },
        {
            "bufferView" : 2,
            "componentType" : 5126,
            "count" : 1376,
            "type" : "VEC2"
        },
        {
            "bufferView" : 3,
            "componentType" : 5123,
            "count" : 2196,
            "type" : "SCALAR"
        }
    ],
    "bufferViews" : [
        {
            "buffer" : 0,
            "byteLength" : 16512,
            "byteOffset" : 0
        },
        {
            "buffer" : 0,
            "byteLength" : 16512,
            "byteOffset" : 16512
        },
        {
            "buffer" : 0,
            "byteLength" : 11008,
            "byteOffset" : 33024
        },
        {
            "buffer" : 0,
            "byteLength" : 4392,
            "byteOffset" : 44032
        }
    ],
    "buffers" : [
        {
            "byteLength" : 48424,
            "uri" : "data:application/octet-stream;base64,"
        }
    ]
}
