{
    "asset" : {
        "generator" : "Khronos glTF Blender I/O v1.4.40",
        "version" : "2.0"
    },
    "scene" : 0,
    "scenes" : [
        {
            "name" : "Scene",
            "nodes" : [
                0,
                1
            ]
        }
    ],
    "nodes" : [
        {
            "mesh" : 0,
            "name" : "Cube",
            "scale" : [
                1,
                1,
                0.125
            ]
        },
        {
            "mesh" : 1,
            "name" : "Cube.001",
            "scale" : [
                1,
                1,
                0.125
            ]
        }
    ],
    "materials" : [
        {
            "doubleSided" : true,
            "name" : "Material.002",
            "pbrMetallicRoughness" : {
                "baseColorFactor" : [
                    0.002481994219124317,
                    0.02870454452931881,
                    0.8000000715255737,
                    1
                ],
                "metallicFactor" : 0,
                "roughnessFactor" : 0.5
            }
        },
        {
            "doubleSided" : true,
            "name" : "Material.001",
            "pbrMetallicRoughness" : {
                "baseColorFactor" : [
                    0.8000000715255737,
                    0,
                    0.34940433502197266,
                    1
                ],
                "metallicFactor" : 0,
                "roughnessFactor" : 0.5
            }
        }
    ],
    "meshes" : [
        {
            "name" : "Cube.001",
            "primitives" : [
                {
                    "attributes" : {
                        "POSITION" : 0,
                        "NORMAL" : 1,
                        "TEXCOORD_0" : 2
                    },
                    "indices" : 3,
                    "material" : 0
                }
            ]
        },
        {
            "name" : "Cube.002",
            "primitives" : [
                {
                    "attributes" : {
                        "POSITION" : 4,
                        "NORMAL" : 5,
                        "TEXCOORD_0" : 6
                    },
                    "indices" : 7,
                    "material" : 1
                }
            ]
        }
    ],
    "accessors" : [
        {
            "bufferView" : 0,
            "componentType" : 5126,
            "count" : 944,
            "max" : [
                0.5,
                0.5,
                0.5
            ],
            "min" : [
                -0.5,
                -0.5,
                -0.5
            ],
            "type" : "VEC3"
        },
        {
            "bufferView" : 1,
            "componentType" : 5126,
            "count" : 944,
            "type" : "VEC3"
        },
        {
            "bufferView" : 2,
            "componentType" : 5126,
            "count" : 944,
            "type" : "VEC2"
        },
        {
            "bufferView" : 3,
            "componentType" : 5123,
            "count" : 1440,
            "type" : "SCALAR"
        },
        {
            "bufferView" : 4,
            "componentType" : 5126,
            "count" : 432,
            "max" : [
                0.49765825271606445,
                1.2898612022399902,
                0.08000035583972931
            ],
            "min" : [
                -0.5023416876792908,
                0.289861261844635,
                -0.08000035583972931
            ],
            "type" : "VEC3"
        },
        {
            "bufferView" : 5,
            "componentType" : 5126,
            "count" : 432,
            "type" : "VEC3"
        },
        {
            "bufferView" : 6,
            "componentType" : 5126,
            "count" : 432,
            "type" : "VEC2"
        },
        {
            "bufferView" : 7,
            "componentType" : 5123,
            "count" : 756,
            "type" : "SCALAR"
        }
    ],
    "bufferViews" : [
        {
            "buffer" : 0,
            "byteLength" : 11328,
            "byteOffset" : 0
        },
        {
            "buffer" : 0,
            "byteLength" : 11328,
            "byteOffset" : 11328
        },
        {
            "buffer" : 0,
            "byteLength" : 7552,
            "byteOffset" : 22656
        },
        {
            "buffer" : 0,
            "byteLength" : 2880,
            "byteOffset" : 30208
        },
        {
            "buffer" : 0,
            "byteLength" : 5184,
            "byteOffset" : 33088
        },
        {
            "buffer" : 0,
            "byteLength" : 5184,
            "byteOffset" : 38272
        },
        {
            "buffer" : 0,
            "byteLength" : 3456,
            "byteOffset" : 43456
        },
        {
            "buffer" : 0,
            "byteLength" : 1512,
            "byteOffset" : 46912
        }
    ],
    "buffers" : [
        {
            "byteLength" : 48424,
            "uri" : "data:application/octet-stream;base64,"
        }
    ]
}
