{
    "asset" : {
        "generator" : "Khronos glTF Blender I/O v1.4.40",
        "version" : "2.0"
    },
    "scene" : 0,
    "scenes" : [
        {
            "name" : "Scene",
            "nodes" : [
                0
            ]
        }
    ],
    "nodes" : [
        {
            "mesh" : 0,
            "name" : "Cube",
            "scale" : [
                0.19992423057556152,
                0.030000029131770134,
                1
            ]
        }
    ],
    "meshes" : [
        {
            "name" : "Cube.001",
            "primitives" : [
                {
                    "attributes" : {
                        "POSITION" : 0,
                        "NORMAL" : 1,
                        "TEXCOORD_0" : 2
                    },
                    "indices" : 3
                }
            ]
        }
    ],
    "accessors" : [
        {
            "bufferView" : 0,
            "componentType" : 5126,
            "count" : 1148,
            "max" : [
                0.5,
                1.0576717853546143,
                0.5
            ],
            "min" : [
                -0.5,
                -2.2933192253112793,
                -0.5
            ],
            "type" : "VEC3"
        },
        {
            "bufferView" : 1,
            "componentType" : 5126,
            "count" : 1148,
            "type" : "VEC3"
        },
        {
            "bufferView" : 2,
            "componentType" : 5126,
            "count" : 1148,
            "type" : "VEC2"
        },
        {
            "bufferView" : 3,
            "componentType" : 5123,
            "count" : 1812,
            "type" : "SCALAR"
        }
    ],
    "bufferViews" : [
        {
            "buffer" : 0,
            "byteLength" : 13776,
            "byteOffset" : 0
        },
        {
            "buffer" : 0,
            "byteLength" : 13776,
            "byteOffset" : 13776
        },
        {
            "buffer" : 0,
            "byteLength" : 9184,
            "byteOffset" : 27552
        },
        {
            "buffer" : 0,
            "byteLength" : 3624,
            "byteOffset" : 36736
        }
    ],
    "buffers" : [
        {
            "byteLength" : 40360,
            "uri" : "data:application/octet-stream;base64,"
        }
    ]
}
