{
    "asset" : {
        "generator" : "Khronos glTF Blender I/O v0.9.36",
        "version" : "2.0"
    },
    "scene" : 0,
    "scenes" : [
        {
            "name" : "Scene",
            "nodes" : [
                0
            ]
        }
    ],
    "nodes" : [
        {
            "mesh" : 0,
            "name" : "Cube"
        }
    ],
    "meshes" : [
        {
            "name" : "Cube.001",
            "primitives" : [
                {
                    "attributes" : {
                        "POSITION" : 0,
                        "NORMAL" : 1,
                        "TEXCOORD_0" : 2
                    },
                    "indices" : 3
                }
            ]
        }
    ],
    "accessors" : [
        {
            "bufferView" : 0,
            "componentType" : 5126,
            "count" : 19129,
            "max" : [
                2.283109664916992,
                32.60728073120117,
                19.94632911682129
            ],
            "min" : [
                -3.2482213973999023,
                -0.0013637542724609375,
                -19.94632911682129
            ],
            "type" : "VEC3"
        },
        {
            "bufferView" : 1,
            "componentType" : 5126,
            "count" : 19129,
            "type" : "VEC3"
        },
        {
            "bufferView" : 2,
            "componentType" : 5126,
            "count" : 19129,
            "type" : "VEC2"
        },
        {
            "bufferView" : 3,
            "componentType" : 5123,
            "count" : 39720,
            "type" : "SCALAR"
        }
    ],
    "bufferViews" : [
        {
            "buffer" : 0,
            "byteLength" : 229548,
            "byteOffset" : 0
        },
        {
            "buffer" : 0,
            "byteLength" : 229548,
            "byteOffset" : 229548
        },
        {
            "buffer" : 0,
            "byteLength" : 153032,
            "byteOffset" : 459096
        },
        {
            "buffer" : 0,
            "byteLength" : 79440,
            "byteOffset" : 612128
        }
    ],
    "buffers" : [
        {
            "byteLength" : 691568,
            "uri" : "data:application/octet-stream;base64,"
        }
    ]
}
